<?xml version="1.0" encoding="utf-8"?><!DOCTYPE svg PUBLIC "-//W3C//DTD SVG 1.1//EN" "http://www.w3.org/Graphics/SVG/1.1/DTD/svg11.dtd"><svg version="1.1" xmlns="http://www.w3.org/2000/svg" xmlns:xlink="http://www.w3.org/1999/xlink" width="36.45399999999999" height="28" viewBox="0 0 36.45399999999999 28" data-code="61980" data-tags="motorcycle"><g fill="#dc3545" transform="scale(0.02734375 0.02734375)"><path d="M1314.857 592c18.286 160.571-112.571 295.429-272 285.143-122.286-8-224-105.714-236.571-228-9.143-86.857 25.143-165.143 83.429-217.714l-40.571-61.143c-72 60-117.714 149.714-117.714 250.286 0 20.571-16 37.714-36.571 37.714h-185.714c-17.714 124-124 219.429-253.143 219.429-141.143 0-256-114.857-256-256s114.857-256 256-256c30.286 0 59.429 5.714 86.857 15.429l13.714-25.714c-44-39.429-101.714-62.857-173.714-62.857h-36.571c-20 0-36.571-16.571-36.571-36.571s16.571-36.571 36.571-36.571h73.143c128 0 193.143 52.571 219.429 73.143h358.286l-48.571-73.143h-126.857c-22.286 0-40-20-36-42.857 2.857-17.714 20-30.286 37.714-30.286h144.571c12 0 23.429 6.286 30.286 16l40 60 65.143-65.143c6.857-6.857 16.571-10.857 26.286-10.857h57.714c20 0 36.571 16.571 36.571 36.571v73.143c0 20-16.571 36.571-36.571 36.571h-102.286l65.714 98.286c46.286-22.286 100-31.429 157.143-20.571 109.143 20 194.286 111.429 206.857 221.714zM256 804.571c88.571 0 162.286-62.857 179.429-146.286h-179.429c-12.571 0-24.571-6.857-31.429-17.714-6.286-10.857-6.857-24.571-0.571-36l84-158.286c-16.571-4.571-33.714-7.429-52-7.429-100.571 0-182.857 82.286-182.857 182.857s82.286 182.857 182.857 182.857zM1060.571 804.571c100.571 0 182.857-82.286 182.857-182.857s-82.286-182.857-182.857-182.857c-24.571 0-47.429 5.143-69.143 13.714l99.429 148.571c11.429 17.143 6.857 40-9.714 50.857-6.286 4.571-13.714 6.286-20.571 6.286-12 0-23.429-5.714-30.286-16.571l-99.429-148.571c-32.571 33.143-53.143 78.286-53.143 128.571 0 100.571 82.286 182.857 182.857 182.857z" /></g></svg>
